<mxfile host="app.diagrams.net" modified="2022-02-04T11:14:28.994Z" agent="5.0 (Macintosh; Intel Mac OS X 10_15_7) AppleWebKit/537.36 (KHTML, like Gecko) Chrome/97.0.4692.99 Safari/537.36" etag="YfxesfMG-eeaEu2VX-gD" version="16.4.5" type="github">
  <diagram name="Page-1" id="e7e014a7-5840-1c2e-5031-d8a46d1fe8dd">
    <mxGraphModel dx="675" dy="801" grid="1" gridSize="10" guides="1" tooltips="1" connect="1" arrows="1" fold="1" page="1" pageScale="1" pageWidth="1169" pageHeight="826" background="none" math="0" shadow="0">
      <root>
        <mxCell id="0" />
        <mxCell id="1" parent="0" />
        <mxCell id="nfEgRH1cU1zT8-NQTQC5-62" value="Farmer" style="swimlane;whiteSpace=wrap" parent="1" vertex="1">
          <mxGeometry x="40" y="40" width="234.5" height="620" as="geometry" />
        </mxCell>
        <mxCell id="nfEgRH1cU1zT8-NQTQC5-64" value="" style="ellipse;shape=startState;fillColor=#000000;strokeColor=#ff0000;" parent="nfEgRH1cU1zT8-NQTQC5-62" vertex="1">
          <mxGeometry x="100" y="42" width="30" height="30" as="geometry" />
        </mxCell>
        <mxCell id="nfEgRH1cU1zT8-NQTQC5-67" value="harvest coffee" style="" parent="nfEgRH1cU1zT8-NQTQC5-62" vertex="1">
          <mxGeometry x="60" y="120" width="110" height="50" as="geometry" />
        </mxCell>
        <mxCell id="nfEgRH1cU1zT8-NQTQC5-68" value="" style="endArrow=open;strokeColor=#000000;endFill=1;rounded=0;" parent="nfEgRH1cU1zT8-NQTQC5-62" source="nfEgRH1cU1zT8-NQTQC5-64" target="nfEgRH1cU1zT8-NQTQC5-67" edge="1">
          <mxGeometry relative="1" as="geometry">
            <mxPoint x="117.25" y="162" as="sourcePoint" />
          </mxGeometry>
        </mxCell>
        <mxCell id="nfEgRH1cU1zT8-NQTQC5-69" value="process coffee" style="" parent="nfEgRH1cU1zT8-NQTQC5-62" vertex="1">
          <mxGeometry x="60" y="220" width="110" height="50" as="geometry" />
        </mxCell>
        <mxCell id="nfEgRH1cU1zT8-NQTQC5-70" value="" style="endArrow=open;strokeColor=#000000;endFill=1;rounded=0" parent="nfEgRH1cU1zT8-NQTQC5-62" source="nfEgRH1cU1zT8-NQTQC5-67" target="nfEgRH1cU1zT8-NQTQC5-69" edge="1">
          <mxGeometry relative="1" as="geometry" />
        </mxCell>
        <mxCell id="nfEgRH1cU1zT8-NQTQC5-98" value="pack coffee" style="" parent="nfEgRH1cU1zT8-NQTQC5-62" vertex="1">
          <mxGeometry x="60" y="315" width="110" height="50" as="geometry" />
        </mxCell>
        <mxCell id="nfEgRH1cU1zT8-NQTQC5-99" value="" style="endArrow=open;strokeColor=#000000;endFill=1;rounded=0;exitX=0.5;exitY=1;exitDx=0;exitDy=0;" parent="nfEgRH1cU1zT8-NQTQC5-62" source="nfEgRH1cU1zT8-NQTQC5-69" target="nfEgRH1cU1zT8-NQTQC5-98" edge="1">
          <mxGeometry relative="1" as="geometry">
            <mxPoint x="117.25" y="377" as="sourcePoint" />
          </mxGeometry>
        </mxCell>
        <mxCell id="nfEgRH1cU1zT8-NQTQC5-100" value="sell coffee" style="" parent="nfEgRH1cU1zT8-NQTQC5-62" vertex="1">
          <mxGeometry x="60" y="410" width="110" height="50" as="geometry" />
        </mxCell>
        <mxCell id="nfEgRH1cU1zT8-NQTQC5-101" value="" style="endArrow=open;strokeColor=#000000;endFill=1;rounded=0" parent="nfEgRH1cU1zT8-NQTQC5-62" target="nfEgRH1cU1zT8-NQTQC5-100" edge="1" source="nfEgRH1cU1zT8-NQTQC5-98">
          <mxGeometry relative="1" as="geometry">
            <mxPoint x="115" y="390" as="sourcePoint" />
          </mxGeometry>
        </mxCell>
        <mxCell id="nfEgRH1cU1zT8-NQTQC5-111" value="ship coffee" style="" parent="nfEgRH1cU1zT8-NQTQC5-62" vertex="1">
          <mxGeometry x="60" y="510" width="110" height="50" as="geometry" />
        </mxCell>
        <mxCell id="nfEgRH1cU1zT8-NQTQC5-112" value="" style="endArrow=open;strokeColor=#000000;endFill=1;rounded=0;exitX=0.5;exitY=1;exitDx=0;exitDy=0;" parent="nfEgRH1cU1zT8-NQTQC5-62" target="nfEgRH1cU1zT8-NQTQC5-111" edge="1" source="nfEgRH1cU1zT8-NQTQC5-100">
          <mxGeometry relative="1" as="geometry">
            <mxPoint x="115" y="495" as="sourcePoint" />
          </mxGeometry>
        </mxCell>
        <mxCell id="nfEgRH1cU1zT8-NQTQC5-71" value="Distributor" style="swimlane;whiteSpace=wrap" parent="1" vertex="1">
          <mxGeometry x="274.5" y="40" width="234.5" height="620" as="geometry" />
        </mxCell>
        <mxCell id="rxRtyB8IMf35jhVnHvDT-1" style="edgeStyle=orthogonalEdgeStyle;rounded=0;orthogonalLoop=1;jettySize=auto;html=1;exitX=0.5;exitY=1;exitDx=0;exitDy=0;entryX=0.5;entryY=0;entryDx=0;entryDy=0;" edge="1" parent="nfEgRH1cU1zT8-NQTQC5-71" source="nfEgRH1cU1zT8-NQTQC5-73" target="nfEgRH1cU1zT8-NQTQC5-75">
          <mxGeometry relative="1" as="geometry" />
        </mxCell>
        <mxCell id="nfEgRH1cU1zT8-NQTQC5-73" value="" style="ellipse;shape=startState;fillColor=#000000;strokeColor=#ff0000;" parent="nfEgRH1cU1zT8-NQTQC5-71" vertex="1">
          <mxGeometry x="102.25" y="42" width="30" height="30" as="geometry" />
        </mxCell>
        <mxCell id="nfEgRH1cU1zT8-NQTQC5-75" value="buy coffee" style="" parent="nfEgRH1cU1zT8-NQTQC5-71" vertex="1">
          <mxGeometry x="62.25" y="410" width="110" height="50" as="geometry" />
        </mxCell>
        <mxCell id="nfEgRH1cU1zT8-NQTQC5-80" value="Retailer" style="swimlane;whiteSpace=wrap" parent="1" vertex="1">
          <mxGeometry x="509" y="40" width="234.5" height="620" as="geometry" />
        </mxCell>
        <mxCell id="rxRtyB8IMf35jhVnHvDT-2" style="edgeStyle=orthogonalEdgeStyle;rounded=0;orthogonalLoop=1;jettySize=auto;html=1;exitX=0.5;exitY=1;exitDx=0;exitDy=0;entryX=0.5;entryY=0;entryDx=0;entryDy=0;" edge="1" parent="nfEgRH1cU1zT8-NQTQC5-80" source="nfEgRH1cU1zT8-NQTQC5-82" target="nfEgRH1cU1zT8-NQTQC5-84">
          <mxGeometry relative="1" as="geometry" />
        </mxCell>
        <mxCell id="nfEgRH1cU1zT8-NQTQC5-82" value="" style="ellipse;shape=startState;fillColor=#000000;strokeColor=#ff0000;" parent="nfEgRH1cU1zT8-NQTQC5-80" vertex="1">
          <mxGeometry x="102.25" y="42" width="30" height="30" as="geometry" />
        </mxCell>
        <mxCell id="nfEgRH1cU1zT8-NQTQC5-84" value="receive coffee" style="" parent="nfEgRH1cU1zT8-NQTQC5-80" vertex="1">
          <mxGeometry x="62.25" y="511" width="110" height="48" as="geometry" />
        </mxCell>
        <mxCell id="nfEgRH1cU1zT8-NQTQC5-89" value="Consumer" style="swimlane;whiteSpace=wrap" parent="1" vertex="1">
          <mxGeometry x="743.5" y="40" width="234.5" height="620" as="geometry" />
        </mxCell>
        <mxCell id="rxRtyB8IMf35jhVnHvDT-3" style="edgeStyle=orthogonalEdgeStyle;rounded=0;orthogonalLoop=1;jettySize=auto;html=1;exitX=0.5;exitY=1;exitDx=0;exitDy=0;entryX=0.5;entryY=0;entryDx=0;entryDy=0;" edge="1" parent="nfEgRH1cU1zT8-NQTQC5-89" source="nfEgRH1cU1zT8-NQTQC5-91" target="nfEgRH1cU1zT8-NQTQC5-93">
          <mxGeometry relative="1" as="geometry" />
        </mxCell>
        <mxCell id="nfEgRH1cU1zT8-NQTQC5-91" value="" style="ellipse;shape=startState;fillColor=#000000;strokeColor=#ff0000;" parent="nfEgRH1cU1zT8-NQTQC5-89" vertex="1">
          <mxGeometry x="102.25" y="42" width="30" height="30" as="geometry" />
        </mxCell>
        <mxCell id="nfEgRH1cU1zT8-NQTQC5-93" value="purchase coffee" style="" parent="nfEgRH1cU1zT8-NQTQC5-89" vertex="1">
          <mxGeometry x="62.25" y="510" width="110" height="50" as="geometry" />
        </mxCell>
        <mxCell id="nfEgRH1cU1zT8-NQTQC5-114" value="" style="endArrow=open;strokeColor=#33001A;endFill=1;rounded=0;exitX=0.5;exitY=1;exitDx=0;exitDy=0;entryX=1;entryY=0.5;entryDx=0;entryDy=0;" parent="1" source="nfEgRH1cU1zT8-NQTQC5-75" target="nfEgRH1cU1zT8-NQTQC5-111" edge="1">
          <mxGeometry relative="1" as="geometry">
            <mxPoint x="165" y="440" as="sourcePoint" />
            <mxPoint x="165" y="495" as="targetPoint" />
            <Array as="points">
              <mxPoint x="390" y="575" />
            </Array>
          </mxGeometry>
        </mxCell>
        <mxCell id="nfEgRH1cU1zT8-NQTQC5-109" value="" style="endArrow=open;strokeColor=#33001A;endFill=1;rounded=0;exitX=1;exitY=0.75;exitDx=0;exitDy=0;" parent="1" source="nfEgRH1cU1zT8-NQTQC5-111" edge="1">
          <mxGeometry relative="1" as="geometry">
            <mxPoint x="444.5" y="633" as="sourcePoint" />
            <mxPoint x="570" y="588" as="targetPoint" />
          </mxGeometry>
        </mxCell>
        <mxCell id="nfEgRH1cU1zT8-NQTQC5-108" value="" style="endArrow=open;strokeColor=#33001A;endFill=1;rounded=0;entryX=0;entryY=0.5;entryDx=0;entryDy=0;" parent="1" source="nfEgRH1cU1zT8-NQTQC5-100" target="nfEgRH1cU1zT8-NQTQC5-75" edge="1">
          <mxGeometry relative="1" as="geometry">
            <mxPoint x="210" y="508" as="sourcePoint" />
            <mxPoint x="210" y="563" as="targetPoint" />
          </mxGeometry>
        </mxCell>
        <mxCell id="nfEgRH1cU1zT8-NQTQC5-116" value="" style="endArrow=open;strokeColor=#000000;endFill=1;rounded=0;" parent="1" source="nfEgRH1cU1zT8-NQTQC5-84" target="nfEgRH1cU1zT8-NQTQC5-93" edge="1">
          <mxGeometry relative="1" as="geometry">
            <mxPoint x="679" y="627.6971866295264" as="sourcePoint" />
            <mxPoint x="803.5" y="626.31" as="targetPoint" />
          </mxGeometry>
        </mxCell>
      </root>
    </mxGraphModel>
  </diagram>
</mxfile>
